# xmcd CD database file
#
# Track frame offsets:
#	165
#	11875
#	30135
#	44630
#	58242
#	69472
#	81065
#	91747
#	105605
#	118170
#	129010
#	136375
#
# Disc length: 1933 seconds
#
# Revision: 2
# Processed by: cddbd v1.4PL0 Copyright (c) Steve Scherf et al.
# Submitted via: CDex 1.50
#
DISCID=99078b0c
DTITLE=Jonathan Richman - Jonathan Goes Country
DYEAR=1990
DGENRE=Rock
TTITLE0=Since She Started to Ride
TTITLE1=Reno
TTITLE2=You're the One For Me
TTITLE3=Your Good Girl's Gonna Go Bad
TTITLE4=I Must Be King
TTITLE5=You're Crazy For Taking The Bus
TTITLE6=Rodeo Wind
TTITLE7=Corner Store
TTITLE8=The Neighbors
TTITLE9=Man Walks Among Us
TTITLE10=I Can't Stay Mad At You
TTITLE11=Satisfied Mind
EXTD=YEAR: 1990
EXTT0=
EXTT1=
EXTT2=
EXTT3=
EXTT4=
EXTT5=
EXTT6=
EXTT7=
EXTT8=
EXTT9=
EXTT10=
EXTT11=
PLAYORDER=
